<svg width="432" height="422" viewBox="0 0 432 422" fill="none" xmlns="http://www.w3.org/2000/svg">
<mask id="mask0_36_571" style="mask-type:luminance" maskUnits="userSpaceOnUse" x="0" y="0" width="432" height="422">
<path d="M432 0H0V421.38H432V0Z" fill="white"/>
</mask>
<g mask="url(#mask0_36_571)">
<mask id="mask1_36_571" style="mask-type:luminance" maskUnits="userSpaceOnUse" x="58" y="54" width="316" height="313">
<path d="M373.431 54.7588H58.5696V366.621H373.431V54.7588Z" fill="white"/>
</mask>
<g mask="url(#mask1_36_571)">
<path d="M190.995 69.7956C193.345 69.7956 195.25 67.8909 195.25 65.5414C195.25 63.1918 193.345 61.2871 190.995 61.2871C188.646 61.2871 186.741 63.1918 186.741 65.5414C186.741 67.8909 188.646 69.7956 190.995 69.7956Z" fill="currentColor"/>
<path d="M365.907 190.239C368.287 190.239 370.217 188.309 370.217 185.929C370.217 183.548 368.287 181.618 365.907 181.618C363.526 181.618 361.596 183.548 361.596 185.929C361.596 188.309 363.526 190.239 365.907 190.239Z" fill="currentColor"/>
<path d="M95.3984 119.647C97.773 119.647 99.6979 117.722 99.6979 115.348C99.6979 112.973 97.773 111.048 95.3984 111.048C93.0238 111.048 91.0989 112.973 91.0989 115.348C91.0989 117.722 93.0238 119.647 95.3984 119.647Z" fill="currentColor"/>
<path d="M167.234 69.1965C169.621 69.1965 171.556 67.2615 171.556 64.8744C171.556 62.4873 169.621 60.5522 167.234 60.5522C164.847 60.5522 162.912 62.4873 162.912 64.8744C162.912 67.2615 164.847 69.1965 167.234 69.1965Z" fill="currentColor"/>
<path d="M75.1224 157.562C77.5095 157.562 79.4446 155.627 79.4446 153.24C79.4446 150.853 77.5095 148.918 75.1224 148.918C72.7354 148.918 70.8003 150.853 70.8003 153.24C70.8003 155.627 72.7354 157.562 75.1224 157.562Z" fill="currentColor"/>
<path d="M166.85 361.586C169.162 361.586 171.036 359.712 171.036 357.4C171.036 355.088 169.162 353.213 166.85 353.213C164.538 353.213 162.664 355.088 162.664 357.4C162.664 359.712 164.538 361.586 166.85 361.586Z" fill="currentColor"/>
<path d="M274.27 339.002C276.613 339.002 278.513 337.102 278.513 334.759C278.513 332.416 276.613 330.516 274.27 330.516C271.926 330.516 270.027 332.416 270.027 334.759C270.027 337.102 271.926 339.002 274.27 339.002Z" fill="currentColor"/>
<path d="M351.729 151.86C354.079 151.86 355.983 149.955 355.983 147.606C355.983 145.256 354.079 143.352 351.729 143.352C349.38 143.352 347.475 145.256 347.475 147.606C347.475 149.955 349.38 151.86 351.729 151.86Z" fill="currentColor"/>
<path d="M82.1372 288.551C84.443 288.551 86.3123 286.682 86.3123 284.376C86.3123 282.07 84.443 280.201 82.1372 280.201C79.8314 280.201 77.9622 282.07 77.9622 284.376C77.9622 286.682 79.8314 288.551 82.1372 288.551Z" fill="currentColor"/>
<path d="M330.356 159.407C332.674 159.407 334.554 157.528 334.554 155.209C334.554 152.891 332.674 151.012 330.356 151.012C328.038 151.012 326.158 152.891 326.158 155.209C326.158 157.528 328.038 159.407 330.356 159.407Z" fill="currentColor"/>
<path d="M132.33 325.108C134.673 325.108 136.573 323.209 136.573 320.866C136.573 318.522 134.673 316.623 132.33 316.623C129.986 316.623 128.087 318.522 128.087 320.866C128.087 323.209 129.986 325.108 132.33 325.108Z" fill="currentColor"/>
<path d="M172.824 345.339C175.136 345.339 177.011 343.464 177.011 341.152C177.011 338.84 175.136 336.966 172.824 336.966C170.512 336.966 168.638 338.84 168.638 341.152C168.638 343.464 170.512 345.339 172.824 345.339Z" fill="currentColor"/>
<path d="M78.935 213.638C81.2158 213.638 83.0648 211.789 83.0648 209.508C83.0648 207.227 81.2158 205.378 78.935 205.378C76.6542 205.378 74.8052 207.227 74.8052 209.508C74.8052 211.789 76.6542 213.638 78.935 213.638Z" fill="currentColor"/>
<path d="M62.6768 213.864C64.9451 213.864 66.7839 212.025 66.7839 209.757C66.7839 207.489 64.9451 205.65 62.6768 205.65C60.4084 205.65 58.5696 207.489 58.5696 209.757C58.5696 212.025 60.4084 213.864 62.6768 213.864Z" fill="currentColor"/>
<path d="M366.585 241.46C368.897 241.46 370.771 239.585 370.771 237.273C370.771 234.961 368.897 233.087 366.585 233.087C364.273 233.087 362.399 234.961 362.399 237.273C362.399 239.585 364.273 241.46 366.585 241.46Z" fill="currentColor"/>
<path d="M348.889 289.037C351.207 289.037 353.087 287.158 353.087 284.84C353.087 282.521 351.207 280.642 348.889 280.642C346.571 280.642 344.691 282.521 344.691 284.84C344.691 287.158 346.571 289.037 348.889 289.037Z" fill="currentColor"/>
<path d="M95.3758 311.576C97.6879 311.576 99.5622 309.702 99.5622 307.39C99.5622 305.078 97.6879 303.204 95.3758 303.204C93.0638 303.204 91.1895 305.078 91.1895 307.39C91.1895 309.702 93.0638 311.576 95.3758 311.576Z" fill="currentColor"/>
<path d="M337.043 311.293C339.361 311.293 341.241 309.414 341.241 307.096C341.241 304.777 339.361 302.898 337.043 302.898C334.725 302.898 332.845 304.777 332.845 307.096C332.845 309.414 334.725 311.293 337.043 311.293Z" fill="currentColor"/>
<path d="M65.8897 181.414C68.2018 181.414 70.0761 179.539 70.0761 177.227C70.0761 174.915 68.2018 173.041 65.8897 173.041C63.5777 173.041 61.7034 174.915 61.7034 177.227C61.7034 179.539 63.5777 181.414 65.8897 181.414Z" fill="currentColor"/>
<path d="M190.519 361.01C192.85 361.01 194.739 359.12 194.739 356.789C194.739 354.458 192.85 352.569 190.519 352.569C188.188 352.569 186.299 354.458 186.299 356.789C186.299 359.12 188.188 361.01 190.519 361.01Z" fill="currentColor"/>
<path d="M244.863 64.3315C247.238 64.3315 249.163 62.4065 249.163 60.0319C249.163 57.6574 247.238 55.7324 244.863 55.7324C242.488 55.7324 240.563 57.6574 240.563 60.0319C240.563 62.4065 242.488 64.3315 244.863 64.3315Z" fill="currentColor"/>
<path d="M244.875 365.331C247.118 365.331 248.937 363.513 248.937 361.269C248.937 359.026 247.118 357.208 244.875 357.208C242.632 357.208 240.813 359.026 240.813 361.269C240.813 363.513 242.632 365.331 244.875 365.331Z" fill="currentColor"/>
<path d="M131.028 107.744C133.34 107.744 135.214 105.87 135.214 103.558C135.214 101.246 133.34 99.3716 131.028 99.3716C128.716 99.3716 126.842 101.246 126.842 103.558C126.842 105.87 128.716 107.744 131.028 107.744Z" fill="currentColor"/>
<path d="M353.076 214.757C355.369 214.757 357.228 212.898 357.228 210.605C357.228 208.311 355.369 206.452 353.076 206.452C350.782 206.452 348.923 208.311 348.923 210.605C348.923 212.898 350.782 214.757 353.076 214.757Z" fill="currentColor"/>
<path d="M63.8194 241.245C66.094 241.245 67.9379 239.401 67.9379 237.127C67.9379 234.852 66.094 233.008 63.8194 233.008C61.5448 233.008 59.7009 234.852 59.7009 237.127C59.7009 239.401 61.5448 241.245 63.8194 241.245Z" fill="currentColor"/>
<path d="M360.599 267.303C362.868 267.303 364.707 265.464 364.707 263.196C364.707 260.928 362.868 259.089 360.599 259.089C358.331 259.089 356.492 260.928 356.492 263.196C356.492 265.464 358.331 267.303 360.599 267.303Z" fill="currentColor"/>
<path d="M303.009 322.867C305.327 322.867 307.207 320.988 307.207 318.669C307.207 316.351 305.327 314.472 303.009 314.472C300.691 314.472 298.811 316.351 298.811 318.669C298.811 320.988 300.691 322.867 303.009 322.867Z" fill="currentColor"/>
<path d="M328.93 136.088C331.218 136.088 333.072 134.234 333.072 131.947C333.072 129.66 331.218 127.806 328.93 127.806C326.643 127.806 324.789 129.66 324.789 131.947C324.789 134.234 326.643 136.088 328.93 136.088Z" fill="currentColor"/>
<path d="M347.136 171.91C349.36 171.91 351.164 170.107 351.164 167.882C351.164 165.657 349.36 163.854 347.136 163.854C344.911 163.854 343.108 165.657 343.108 167.882C343.108 170.107 344.911 171.91 347.136 171.91Z" fill="currentColor"/>
<path d="M81.9336 143.148C84.2019 143.148 86.0408 141.309 86.0408 139.041C86.0408 136.772 84.2019 134.934 81.9336 134.934C79.6653 134.934 77.8264 136.772 77.8264 139.041C77.8264 141.309 79.6653 143.148 81.9336 143.148Z" fill="currentColor"/>
<path d="M214.065 366.622C216.296 366.622 218.105 364.813 218.105 362.582C218.105 360.351 216.296 358.543 214.065 358.543C211.835 358.543 210.026 360.351 210.026 362.582C210.026 364.813 211.835 366.622 214.065 366.622Z" fill="currentColor"/>
<path d="M311.993 93.9299C314.18 93.9299 315.953 92.1569 315.953 89.9699C315.953 87.7828 314.18 86.0098 311.993 86.0098C309.806 86.0098 308.033 87.7828 308.033 89.9699C308.033 92.1569 309.806 93.9299 311.993 93.9299Z" fill="currentColor"/>
<path d="M155.557 102.392C157.795 102.392 159.608 100.579 159.608 98.3416C159.608 96.1045 157.795 94.291 155.557 94.291C153.32 94.291 151.507 96.1045 151.507 98.3416C151.507 100.579 153.32 102.392 155.557 102.392Z" fill="currentColor"/>
<path d="M303.427 108.231C305.746 108.231 307.625 106.352 307.625 104.034C307.625 101.715 305.746 99.8359 303.427 99.8359C301.109 99.8359 299.23 101.715 299.23 104.034C299.23 106.352 301.109 108.231 303.427 108.231Z" fill="currentColor"/>
<path d="M309.91 304.03C312.154 304.03 313.972 302.211 313.972 299.968C313.972 297.724 312.154 295.906 309.91 295.906C307.667 295.906 305.848 297.724 305.848 299.968C305.848 302.211 307.667 304.03 309.91 304.03Z" fill="currentColor"/>
<path d="M322.945 320.153C325.133 320.153 326.906 318.38 326.906 316.193C326.906 314.005 325.133 312.232 322.945 312.232C320.758 312.232 318.985 314.005 318.985 316.193C318.985 318.38 320.758 320.153 322.945 320.153Z" fill="currentColor"/>
<path d="M281.918 353.995C284.186 353.995 286.025 352.156 286.025 349.887C286.025 347.619 284.186 345.78 281.918 345.78C279.649 345.78 277.811 347.619 277.811 349.887C277.811 352.156 279.649 353.995 281.918 353.995Z" fill="currentColor"/>
<path d="M90.0125 233.891C92.1933 233.891 93.9613 232.123 93.9613 229.942C93.9613 227.761 92.1933 225.993 90.0125 225.993C87.8316 225.993 86.0637 227.761 86.0637 229.942C86.0637 232.123 87.8316 233.891 90.0125 233.891Z" fill="currentColor"/>
<path d="M159.02 326.002C161.226 326.002 163.014 324.214 163.014 322.008C163.014 319.802 161.226 318.014 159.02 318.014C156.814 318.014 155.026 319.802 155.026 322.008C155.026 324.214 156.814 326.002 159.02 326.002Z" fill="currentColor"/>
<path d="M241.616 348.224C243.79 348.224 245.553 346.461 245.553 344.287C245.553 342.112 243.79 340.349 241.616 340.349C239.441 340.349 237.678 342.112 237.678 344.287C237.678 346.461 239.441 348.224 241.616 348.224Z" fill="currentColor"/>
<path d="M361.709 167.485C363.871 167.485 365.623 165.733 365.623 163.571C365.623 161.408 363.871 159.656 361.709 159.656C359.546 159.656 357.794 161.408 357.794 163.571C357.794 165.733 359.546 167.485 361.709 167.485Z" fill="currentColor"/>
<path d="M108.161 130.725C110.38 130.725 112.178 128.926 112.178 126.708C112.178 124.49 110.38 122.691 108.161 122.691C105.943 122.691 104.145 124.49 104.145 126.708C104.145 128.926 105.943 130.725 108.161 130.725Z" fill="currentColor"/>
<path d="M194.016 338.471C196.21 338.471 197.988 336.693 197.988 334.499C197.988 332.306 196.21 330.528 194.016 330.528C191.823 330.528 190.045 332.306 190.045 334.499C190.045 336.693 191.823 338.471 194.016 338.471Z" fill="currentColor"/>
<path d="M342.214 127.511C344.526 127.511 346.4 125.637 346.4 123.325C346.4 121.013 344.526 119.139 342.214 119.139C339.902 119.139 338.028 121.013 338.028 123.325C338.028 125.637 339.902 127.511 342.214 127.511Z" fill="currentColor"/>
<path d="M273.682 90.931C275.925 90.931 277.743 89.1124 277.743 86.869C277.743 84.6257 275.925 82.8071 273.682 82.8071C271.438 82.8071 269.62 84.6257 269.62 86.869C269.62 89.1124 271.438 90.931 273.682 90.931Z" fill="currentColor"/>
<path d="M281.047 75.1816C283.278 75.1816 285.086 73.3732 285.086 71.1423C285.086 68.9115 283.278 67.103 281.047 67.103C278.816 67.103 277.008 68.9115 277.008 71.1423C277.008 73.3732 278.816 75.1816 281.047 75.1816Z" fill="currentColor"/>
<path d="M213.805 79.0281C216.011 79.0281 217.799 77.2399 217.799 75.0341C217.799 72.8282 216.011 71.04 213.805 71.04C211.599 71.04 209.811 72.8282 209.811 75.0341C209.811 77.2399 211.599 79.0281 213.805 79.0281Z" fill="currentColor"/>
<path d="M120.461 93.5228C122.704 93.5228 124.523 91.7042 124.523 89.4608C124.523 87.2175 122.704 85.3989 120.461 85.3989C118.217 85.3989 116.399 87.2175 116.399 89.4608C116.399 91.7042 118.217 93.5228 120.461 93.5228Z" fill="currentColor"/>
<path d="M107.889 299.367C110.095 299.367 111.883 297.579 111.883 295.373C111.883 293.168 110.095 291.379 107.889 291.379C105.683 291.379 103.895 293.168 103.895 295.373C103.895 297.579 105.683 299.367 107.889 299.367Z" fill="currentColor"/>
<path d="M70.8686 266.33C73.0807 266.33 74.874 264.536 74.874 262.324C74.874 260.112 73.0807 258.319 70.8686 258.319C68.6565 258.319 66.8633 260.112 66.8633 262.324C66.8633 264.536 68.6565 266.33 70.8686 266.33Z" fill="currentColor"/>
<path d="M346.615 259.801C348.814 259.801 350.597 258.018 350.597 255.818C350.597 253.619 348.814 251.835 346.615 251.835C344.415 251.835 342.632 253.619 342.632 255.818C342.632 258.018 344.415 259.801 346.615 259.801Z" fill="currentColor"/>
<path d="M120.415 337.872C122.589 337.872 124.352 336.109 124.352 333.934C124.352 331.759 122.589 329.997 120.415 329.997C118.24 329.997 116.477 331.759 116.477 333.934C116.477 336.109 118.24 337.872 120.415 337.872Z" fill="currentColor"/>
<path d="M213.986 62.7695C216.198 62.7695 217.991 60.9762 217.991 58.7641C217.991 56.552 216.198 54.7588 213.986 54.7588C211.774 54.7588 209.981 56.552 209.981 58.7641C209.981 60.9762 211.774 62.7695 213.986 62.7695Z" fill="currentColor"/>
<path d="M312.253 336.864C314.396 336.864 316.134 335.127 316.134 332.983C316.134 330.84 314.396 329.103 312.253 329.103C310.11 329.103 308.372 330.84 308.372 332.983C308.372 335.127 310.11 336.864 312.253 336.864Z" fill="currentColor"/>
<path d="M85.0799 258.341C87.2232 258.341 88.9607 256.604 88.9607 254.46C88.9607 252.317 87.2232 250.58 85.0799 250.58C82.9365 250.58 81.199 252.317 81.199 254.46C81.199 256.604 82.9365 258.341 85.0799 258.341Z" fill="currentColor"/>
<path d="M124.522 283.029C126.684 283.029 128.437 281.276 128.437 279.114C128.437 276.952 126.684 275.199 124.522 275.199C122.36 275.199 120.607 276.952 120.607 279.114C120.607 281.276 122.36 283.029 124.522 283.029Z" fill="currentColor"/>
<path d="M342.1 193.644C344.269 193.644 346.027 191.886 346.027 189.718C346.027 187.549 344.269 185.792 342.1 185.792C339.932 185.792 338.174 187.549 338.174 189.718C338.174 191.886 339.932 193.644 342.1 193.644Z" fill="currentColor"/>
<path d="M369.572 214.124C371.703 214.124 373.43 212.397 373.43 210.266C373.43 208.135 371.703 206.408 369.572 206.408C367.441 206.408 365.714 208.135 365.714 210.266C365.714 212.397 367.441 214.124 369.572 214.124Z" fill="currentColor"/>
<path d="M105.456 163.887C107.594 163.887 109.326 162.155 109.326 160.018C109.326 157.88 107.594 156.148 105.456 156.148C103.319 156.148 101.587 157.88 101.587 160.018C101.587 162.155 103.319 163.887 105.456 163.887Z" fill="currentColor"/>
<path d="M326.08 298.542C328.235 298.542 329.983 296.794 329.983 294.638C329.983 292.483 328.235 290.735 326.08 290.735C323.924 290.735 322.176 292.483 322.176 294.638C322.176 296.794 323.924 298.542 326.08 298.542Z" fill="currentColor"/>
<path d="M146.291 305.297C148.459 305.297 150.217 303.539 150.217 301.37C150.217 299.202 148.459 297.444 146.291 297.444C144.122 297.444 142.365 299.202 142.365 301.37C142.365 303.539 144.122 305.297 146.291 305.297Z" fill="currentColor"/>
<path d="M83.4958 183.722C85.6329 183.722 87.3654 181.989 87.3654 179.852C87.3654 177.715 85.6329 175.982 83.4958 175.982C81.3587 175.982 79.6262 177.715 79.6262 179.852C79.6262 181.989 81.3587 183.722 83.4958 183.722Z" fill="currentColor"/>
<path d="M342.293 234.253C344.362 234.253 346.039 232.576 346.039 230.508C346.039 228.439 344.362 226.763 342.293 226.763C340.225 226.763 338.548 228.439 338.548 230.508C338.548 232.576 340.225 234.253 342.293 234.253Z" fill="currentColor"/>
<path d="M193.643 91.8586C195.793 91.8586 197.535 90.116 197.535 87.9664C197.535 85.8168 195.793 84.0742 193.643 84.0742C191.493 84.0742 189.751 85.8168 189.751 87.9664C189.751 90.116 191.493 91.8586 193.643 91.8586Z" fill="currentColor"/>
<path d="M92.4344 196.043C94.509 196.043 96.1908 194.361 96.1908 192.286C96.1908 190.212 94.509 188.53 92.4344 188.53C90.3598 188.53 88.678 190.212 88.678 192.286C88.678 194.361 90.3598 196.043 92.4344 196.043Z" fill="currentColor"/>
<path d="M241.978 80.7934C244.153 80.7934 245.916 79.0305 245.916 76.8559C245.916 74.6813 244.153 72.9185 241.978 72.9185C239.804 72.9185 238.041 74.6813 238.041 76.8559C238.041 79.0305 239.804 80.7934 241.978 80.7934Z" fill="currentColor"/>
<path d="M146.495 125.271C148.582 125.271 150.274 123.579 150.274 121.491C150.274 119.404 148.582 117.712 146.495 117.712C144.408 117.712 142.716 119.404 142.716 121.491C142.716 123.579 144.408 125.271 146.495 125.271Z" fill="currentColor"/>
<path d="M225.583 338.776C227.708 338.776 229.43 337.054 229.43 334.929C229.43 332.805 227.708 331.083 225.583 331.083C223.459 331.083 221.736 332.805 221.736 334.929C221.736 337.054 223.459 338.776 225.583 338.776Z" fill="currentColor"/>
<path d="M323.59 111.071C325.739 111.071 327.482 109.328 327.482 107.178C327.482 105.029 325.739 103.286 323.59 103.286C321.44 103.286 319.698 105.029 319.698 107.178C319.698 109.328 321.44 111.071 323.59 111.071Z" fill="currentColor"/>
<path d="M83.3591 167.486C85.4275 167.486 87.1042 165.809 87.1042 163.741C87.1042 161.672 85.4275 159.996 83.3591 159.996C81.2908 159.996 79.614 161.672 79.614 163.741C79.614 165.809 81.2908 167.486 83.3591 167.486Z" fill="currentColor"/>
<path d="M261.224 353.949C263.311 353.949 265.003 352.257 265.003 350.17C265.003 348.083 263.311 346.391 261.224 346.391C259.137 346.391 257.445 348.083 257.445 350.17C257.445 352.257 259.137 353.949 261.224 353.949Z" fill="currentColor"/>
<path d="M261.281 75.2723C263.418 75.2723 265.151 73.5399 265.151 71.4028C265.151 69.2657 263.418 67.5332 261.281 67.5332C259.144 67.5332 257.411 69.2657 257.411 71.4028C257.411 73.5399 259.144 75.2723 261.281 75.2723Z" fill="currentColor"/>
<path d="M173.253 84.3236C175.353 84.3236 177.055 82.6215 177.055 80.5219C177.055 78.4223 175.353 76.7202 173.253 76.7202C171.154 76.7202 169.452 78.4223 169.452 80.5219C169.452 82.6215 171.154 84.3236 173.253 84.3236Z" fill="currentColor"/>
<path d="M127.012 305.341C129.124 305.341 130.836 303.629 130.836 301.517C130.836 299.405 129.124 297.693 127.012 297.693C124.9 297.693 123.188 299.405 123.188 301.517C123.188 303.629 124.9 305.341 127.012 305.341Z" fill="currentColor"/>
<path d="M179.296 321.341C181.358 321.341 183.03 319.669 183.03 317.607C183.03 315.545 181.358 313.873 179.296 313.873C177.234 313.873 175.562 315.545 175.562 317.607C175.562 319.669 177.234 321.341 179.296 321.341Z" fill="currentColor"/>
<path d="M110.187 320.39C112.274 320.39 113.966 318.698 113.966 316.611C113.966 314.524 112.274 312.832 110.187 312.832C108.099 312.832 106.407 314.524 106.407 316.611C106.407 318.698 108.099 320.39 110.187 320.39Z" fill="currentColor"/>
<path d="M283.253 109.34C285.334 109.34 287.021 107.653 287.021 105.572C287.021 103.491 285.334 101.804 283.253 101.804C281.172 101.804 279.485 103.491 279.485 105.572C279.485 107.653 281.172 109.34 283.253 109.34Z" fill="currentColor"/>
<path d="M330.232 213.943C332.325 213.943 334.022 212.246 334.022 210.153C334.022 208.059 332.325 206.362 330.232 206.362C328.138 206.362 326.441 208.059 326.441 210.153C326.441 212.246 328.138 213.943 330.232 213.943Z" fill="currentColor"/>
<path d="M144.345 81.223C146.426 81.223 148.113 79.5361 148.113 77.4552C148.113 75.3744 146.426 73.6875 144.345 73.6875C142.265 73.6875 140.578 75.3744 140.578 77.4552C140.578 79.5361 142.265 81.223 144.345 81.223Z" fill="currentColor"/>
<path d="M213.816 350.476C215.89 350.476 217.572 348.794 217.572 346.719C217.572 344.645 215.89 342.963 213.816 342.963C211.741 342.963 210.059 344.645 210.059 346.719C210.059 348.794 211.741 350.476 213.816 350.476Z" fill="currentColor"/>
<path d="M291.253 89.6977C293.303 89.6977 294.964 88.0362 294.964 85.9866C294.964 83.9369 293.303 82.2754 291.253 82.2754C289.203 82.2754 287.542 83.9369 287.542 85.9866C287.542 88.0362 289.203 89.6977 291.253 89.6977Z" fill="currentColor"/>
<path d="M226.296 359.64C228.321 359.64 229.962 357.999 229.962 355.974C229.962 353.95 228.321 352.309 226.296 352.309C224.272 352.309 222.63 353.95 222.63 355.974C222.63 357.999 224.272 359.64 226.296 359.64Z" fill="currentColor"/>
<path d="M111.08 111.501C113.055 111.501 114.656 109.901 114.656 107.926C114.656 105.951 113.055 104.351 111.08 104.351C109.106 104.351 107.505 105.951 107.505 107.926C107.505 109.901 109.106 111.501 111.08 111.501Z" fill="currentColor"/>
<path d="M98.2606 148.907C100.304 148.907 101.96 147.25 101.96 145.207C101.96 143.163 100.304 141.507 98.2606 141.507C96.2173 141.507 94.5608 143.163 94.5608 145.207C94.5608 147.25 96.2173 148.907 98.2606 148.907Z" fill="currentColor"/>
<path d="M309.877 126.889C311.926 126.889 313.588 125.227 313.588 123.177C313.588 121.128 311.926 119.466 309.877 119.466C307.827 119.466 306.166 121.128 306.166 123.177C306.166 125.227 307.827 126.889 309.877 126.889Z" fill="currentColor"/>
<path d="M292.712 339.489C294.693 339.489 296.298 337.883 296.298 335.902C296.298 333.921 294.693 332.315 292.712 332.315C290.731 332.315 289.125 333.921 289.125 335.902C289.125 337.883 290.731 339.489 292.712 339.489Z" fill="currentColor"/>
<path d="M125.178 145.795C127.153 145.795 128.754 144.195 128.754 142.22C128.754 140.245 127.153 138.645 125.178 138.645C123.204 138.645 121.603 140.245 121.603 142.22C121.603 144.195 123.204 145.795 125.178 145.795Z" fill="currentColor"/>
<path d="M287.451 126.889C289.394 126.889 290.97 125.314 290.97 123.37C290.97 121.427 289.394 119.852 287.451 119.852C285.508 119.852 283.932 121.427 283.932 123.37C283.932 125.314 285.508 126.889 287.451 126.889Z" fill="currentColor"/>
<path d="M106.849 249.312C108.805 249.312 110.39 247.726 110.39 245.77C110.39 243.815 108.805 242.229 106.849 242.229C104.893 242.229 103.307 243.815 103.307 245.77C103.307 247.726 104.893 249.312 106.849 249.312Z" fill="currentColor"/>
<path d="M155.252 345.927C157.189 345.927 158.759 344.356 158.759 342.419C158.759 340.482 157.189 338.912 155.252 338.912C153.315 338.912 151.744 340.482 151.744 342.419C151.744 344.356 153.315 345.927 155.252 345.927Z" fill="currentColor"/>
<path d="M101.226 213.57C103.182 213.57 104.767 211.984 104.767 210.028C104.767 208.072 103.182 206.487 101.226 206.487C99.2699 206.487 97.6843 208.072 97.6843 210.028C97.6843 211.984 99.2699 213.57 101.226 213.57Z" fill="currentColor"/>
<path d="M137.5 92.3119C139.512 92.3119 141.143 90.6808 141.143 88.6687C141.143 86.6565 139.512 85.0254 137.5 85.0254C135.488 85.0254 133.856 86.6565 133.856 88.6687C133.856 90.6808 135.488 92.3119 137.5 92.3119Z" fill="currentColor"/>
<path d="M226.036 90.8751C228.017 90.8751 229.623 89.2693 229.623 87.2884C229.623 85.3075 228.017 83.7017 226.036 83.7017C224.055 83.7017 222.449 85.3075 222.449 87.2884C222.449 89.2693 224.055 90.8751 226.036 90.8751Z" fill="currentColor"/>
<path d="M179.081 107.088C181.043 107.088 182.634 105.498 182.634 103.536C182.634 101.574 181.043 99.9829 179.081 99.9829C177.119 99.9829 175.528 101.574 175.528 103.536C175.528 105.498 177.119 107.088 179.081 107.088Z" fill="currentColor"/>
<path d="M308.666 281.4C310.591 281.4 312.151 279.84 312.151 277.916C312.151 275.991 310.591 274.431 308.666 274.431C306.741 274.431 305.181 275.991 305.181 277.916C305.181 279.84 306.741 281.4 308.666 281.4Z" fill="currentColor"/>
<path d="M254.356 95.8306C256.299 95.8306 257.875 94.2552 257.875 92.3118C257.875 90.3684 256.299 88.793 254.356 88.793C252.413 88.793 250.837 90.3684 250.837 92.3118C250.837 94.2552 252.413 95.8306 254.356 95.8306Z" fill="currentColor"/>
<path d="M143.79 348.258C145.752 348.258 147.343 346.668 147.343 344.706C147.343 342.743 145.752 341.153 143.79 341.153C141.828 341.153 140.238 342.743 140.238 344.706C140.238 346.668 141.828 348.258 143.79 348.258Z" fill="currentColor"/>
<path d="M262.65 318.003C264.531 318.003 266.056 316.478 266.056 314.597C266.056 312.716 264.531 311.191 262.65 311.191C260.769 311.191 259.244 312.716 259.244 314.597C259.244 316.478 260.769 318.003 262.65 318.003Z" fill="currentColor"/>
<path d="M254.062 334.545C256.031 334.545 257.626 332.949 257.626 330.981C257.626 329.012 256.031 327.417 254.062 327.417C252.094 327.417 250.498 329.012 250.498 330.981C250.498 332.949 252.094 334.545 254.062 334.545Z" fill="currentColor"/>
<path d="M107.358 185.34C109.251 185.34 110.786 183.806 110.786 181.912C110.786 180.019 109.251 178.484 107.358 178.484C105.465 178.484 103.93 180.019 103.93 181.912C103.93 183.806 105.465 185.34 107.358 185.34Z" fill="currentColor"/>
<path d="M126.955 125.973C128.842 125.973 130.372 124.443 130.372 122.556C130.372 120.669 128.842 119.139 126.955 119.139C125.067 119.139 123.538 120.669 123.538 122.556C123.538 124.443 125.067 125.973 126.955 125.973Z" fill="currentColor"/>
<path d="M99.2005 277.214C101.094 277.214 102.629 275.679 102.629 273.786C102.629 271.892 101.094 270.357 99.2005 270.357C97.3071 270.357 95.7722 271.892 95.7722 273.786C95.7722 275.679 97.3071 277.214 99.2005 277.214Z" fill="currentColor"/>
<path d="M353.777 249.119C355.67 249.119 357.205 247.584 357.205 245.691C357.205 243.798 355.67 242.263 353.777 242.263C351.884 242.263 350.349 243.798 350.349 245.691C350.349 247.584 351.884 249.119 353.777 249.119Z" fill="currentColor"/>
<path d="M70.0998 197.492C71.9495 197.492 73.4489 195.992 73.4489 194.143C73.4489 192.293 71.9495 190.793 70.0998 190.793C68.2502 190.793 66.7507 192.293 66.7507 194.143C66.7507 195.992 68.2502 197.492 70.0998 197.492Z" fill="currentColor"/>
<path d="M322.459 249.323C324.302 249.323 325.796 247.829 325.796 245.985C325.796 244.142 324.302 242.647 322.459 242.647C320.615 242.647 319.121 244.142 319.121 245.985C319.121 247.829 320.615 249.323 322.459 249.323Z" fill="currentColor"/>
<path d="M309.446 148.771C311.302 148.771 312.807 147.267 312.807 145.411C312.807 143.555 311.302 142.05 309.446 142.05C307.59 142.05 306.086 143.555 306.086 145.411C306.086 147.267 307.59 148.771 309.446 148.771Z" fill="currentColor"/>
<path d="M213.567 327.1C215.404 327.1 216.894 325.61 216.894 323.773C216.894 321.936 215.404 320.447 213.567 320.447C211.73 320.447 210.241 321.936 210.241 323.773C210.241 325.61 211.73 327.1 213.567 327.1Z" fill="currentColor"/>
<path d="M360.442 199.121C362.247 199.121 363.711 197.657 363.711 195.851C363.711 194.045 362.247 192.581 360.442 192.581C358.636 192.581 357.172 194.045 357.172 195.851C357.172 197.657 358.636 199.121 360.442 199.121Z" fill="currentColor"/>
<path d="M286.603 301.687C288.409 301.687 289.873 300.223 289.873 298.417C289.873 296.611 288.409 295.147 286.603 295.147C284.797 295.147 283.333 296.611 283.333 298.417C283.333 300.223 284.797 301.687 286.603 301.687Z" fill="currentColor"/>
<path d="M213.397 101.261C215.322 101.261 216.882 99.7005 216.882 97.7759C216.882 95.8512 215.322 94.291 213.397 94.291C211.473 94.291 209.913 95.8512 209.913 97.7759C209.913 99.7005 211.473 101.261 213.397 101.261Z" fill="currentColor"/>
<path d="M262.796 110.301C264.609 110.301 266.078 108.832 266.078 107.02C266.078 105.208 264.609 103.739 262.796 103.739C260.984 103.739 259.515 105.208 259.515 107.02C259.515 108.832 260.984 110.301 262.796 110.301Z" fill="currentColor"/>
<path d="M74.105 250.41C75.9234 250.41 77.3976 248.936 77.3976 247.118C77.3976 245.299 75.9234 243.825 74.105 243.825C72.2866 243.825 70.8125 245.299 70.8125 247.118C70.8125 248.936 72.2866 250.41 74.105 250.41Z" fill="currentColor"/>
<path d="M138.099 335.484C139.918 335.484 141.392 334.009 141.392 332.191C141.392 330.373 139.918 328.898 138.099 328.898C136.281 328.898 134.807 330.373 134.807 332.191C134.807 334.009 136.281 335.484 138.099 335.484Z" fill="currentColor"/>
<path d="M328.229 188.632C329.972 188.632 331.386 187.219 331.386 185.476C331.386 183.732 329.972 182.319 328.229 182.319C326.486 182.319 325.072 183.732 325.072 185.476C325.072 187.219 326.486 188.632 328.229 188.632Z" fill="currentColor"/>
<path d="M226.794 69.231C228.537 69.231 229.951 67.8177 229.951 66.0742C229.951 64.3308 228.537 62.9175 226.794 62.9175C225.051 62.9175 223.637 64.3308 223.637 66.0742C223.637 67.8177 225.051 69.231 226.794 69.231Z" fill="currentColor"/>
<path d="M364.809 226.026C366.521 226.026 367.909 224.638 367.909 222.926C367.909 221.214 366.521 219.826 364.809 219.826C363.097 219.826 361.709 221.214 361.709 222.926C361.709 224.638 363.097 226.026 364.809 226.026Z" fill="currentColor"/>
<path d="M69.7703 225.97C71.445 225.97 72.8026 224.612 72.8026 222.938C72.8026 221.263 71.445 219.905 69.7703 219.905C68.0956 219.905 66.738 221.263 66.738 222.938C66.738 224.612 68.0956 225.97 69.7703 225.97Z" fill="currentColor"/>
<path d="M316.722 198.034C318.328 198.034 319.629 196.733 319.629 195.127C319.629 193.521 318.328 192.219 316.722 192.219C315.116 192.219 313.814 193.521 313.814 195.127C313.814 196.733 315.116 198.034 316.722 198.034Z" fill="currentColor"/>
<path d="M155.988 80.8047C157.675 80.8047 159.043 79.4369 159.043 77.7497C159.043 76.0626 157.675 74.6948 155.988 74.6948C154.301 74.6948 152.933 76.0626 152.933 77.7497C152.933 79.4369 154.301 80.8047 155.988 80.8047Z" fill="currentColor"/>
<path d="M121.308 159.328C122.958 159.328 124.295 157.991 124.295 156.341C124.295 154.691 122.958 153.354 121.308 153.354C119.658 153.354 118.321 154.691 118.321 156.341C118.321 157.991 119.658 159.328 121.308 159.328Z" fill="currentColor"/>
<path d="M322.752 178.189C324.408 178.189 325.751 176.846 325.751 175.19C325.751 173.534 324.408 172.192 322.752 172.192C321.096 172.192 319.754 173.534 319.754 175.19C319.754 176.846 321.096 178.189 322.752 178.189Z" fill="currentColor"/>
<path d="M93.1356 293.993C94.6853 293.993 95.9416 292.737 95.9416 291.187C95.9416 289.637 94.6853 288.381 93.1356 288.381C91.5859 288.381 90.3296 289.637 90.3296 291.187C90.3296 292.737 91.5859 293.993 93.1356 293.993Z" fill="currentColor"/>
<path d="M105.378 266.748C106.99 266.748 108.297 265.442 108.297 263.829C108.297 262.217 106.99 260.91 105.378 260.91C103.765 260.91 102.458 262.217 102.458 263.829C102.458 265.442 103.765 266.748 105.378 266.748Z" fill="currentColor"/>
<path d="M267.22 297.795C268.82 297.795 270.117 296.498 270.117 294.898C270.117 293.299 268.82 292.002 267.22 292.002C265.621 292.002 264.324 293.299 264.324 294.898C264.324 296.498 265.621 297.795 267.22 297.795Z" fill="currentColor"/>
<path d="M199.231 112.022C200.75 112.022 201.981 110.791 201.981 109.272C201.981 107.754 200.75 106.523 199.231 106.523C197.713 106.523 196.482 107.754 196.482 109.272C196.482 110.791 197.713 112.022 199.231 112.022Z" fill="currentColor"/>
<path d="M83.9365 273.095C85.5237 273.095 86.8104 271.808 86.8104 270.221C86.8104 268.634 85.5237 267.347 83.9365 267.347C82.3493 267.347 81.0626 268.634 81.0626 270.221C81.0626 271.808 82.3493 273.095 83.9365 273.095Z" fill="currentColor"/>
<path d="M196.732 311.169C198.262 311.169 199.504 309.928 199.504 308.397C199.504 306.866 198.262 305.625 196.732 305.625C195.201 305.625 193.959 306.866 193.959 308.397C193.959 309.928 195.201 311.169 196.732 311.169Z" fill="currentColor"/>
<path d="M309.345 164.317C310.845 164.317 312.061 163.101 312.061 161.601C312.061 160.102 310.845 158.886 309.345 158.886C307.845 158.886 306.63 160.102 306.63 161.601C306.63 163.101 307.845 164.317 309.345 164.317Z" fill="currentColor"/>
<path d="M201.936 354.752C203.461 354.752 204.697 353.516 204.697 351.992C204.697 350.467 203.461 349.231 201.936 349.231C200.411 349.231 199.175 350.467 199.175 351.992C199.175 353.516 200.411 354.752 201.936 354.752Z" fill="currentColor"/>
<path d="M167.336 123.484C168.817 123.484 170.018 122.283 170.018 120.802C170.018 119.321 168.817 118.121 167.336 118.121C165.855 118.121 164.655 119.321 164.655 120.802C164.655 122.283 165.855 123.484 167.336 123.484Z" fill="currentColor"/>
<path d="M316.745 266.533C318.213 266.533 319.404 265.342 319.404 263.874C319.404 262.405 318.213 261.215 316.745 261.215C315.276 261.215 314.086 262.405 314.086 263.874C314.086 265.342 315.276 266.533 316.745 266.533Z" fill="currentColor"/>
<path d="M232.825 111.546C234.275 111.546 235.45 110.371 235.45 108.921C235.45 107.472 234.275 106.296 232.825 106.296C231.375 106.296 230.2 107.472 230.2 108.921C230.2 110.371 231.375 111.546 232.825 111.546Z" fill="currentColor"/>
<path d="M168.049 300.306C169.511 300.306 170.697 299.121 170.697 297.659C170.697 296.197 169.511 295.011 168.049 295.011C166.587 295.011 165.402 296.197 165.402 297.659C165.402 299.121 166.587 300.306 168.049 300.306Z" fill="currentColor"/>
<path d="M237.894 324.95C239.319 324.95 240.474 323.795 240.474 322.37C240.474 320.946 239.319 319.791 237.894 319.791C236.469 319.791 235.314 320.946 235.314 322.37C235.314 323.795 236.469 324.95 237.894 324.95Z" fill="currentColor"/>
<path d="M223.751 311.973C225.144 311.973 226.274 310.843 226.274 309.449C226.274 308.056 225.144 306.926 223.751 306.926C222.357 306.926 221.228 308.056 221.228 309.449C221.228 310.843 222.357 311.973 223.751 311.973Z" fill="currentColor"/>
<path d="M336.455 292.534C337.805 292.534 338.899 291.44 338.899 290.09C338.899 288.74 337.805 287.646 336.455 287.646C335.105 287.646 334.011 288.74 334.011 290.09C334.011 291.44 335.105 292.534 336.455 292.534Z" fill="currentColor"/>
<path d="M247.148 309.969C248.492 309.969 249.581 308.88 249.581 307.537C249.581 306.193 248.492 305.104 247.148 305.104C245.805 305.104 244.716 306.193 244.716 307.537C244.716 308.88 245.805 309.969 247.148 309.969Z" fill="currentColor"/>
<path d="M126.638 183.553C127.962 183.553 129.036 182.479 129.036 181.154C129.036 179.829 127.962 178.755 126.638 178.755C125.313 178.755 124.239 179.829 124.239 181.154C124.239 182.479 125.313 183.553 126.638 183.553Z" fill="currentColor"/>
<path d="M158.217 139.968C159.548 139.968 160.627 138.889 160.627 137.558C160.627 136.227 159.548 135.148 158.217 135.148C156.886 135.148 155.807 136.227 155.807 137.558C155.807 138.889 156.886 139.968 158.217 139.968Z" fill="currentColor"/>
<path d="M93.2491 132.693C94.6051 132.693 95.7044 131.594 95.7044 130.238C95.7044 128.882 94.6051 127.783 93.2491 127.783C91.8931 127.783 90.7938 128.882 90.7938 130.238C90.7938 131.594 91.8931 132.693 93.2491 132.693Z" fill="currentColor"/>
<path d="M292.792 159.769C294.154 159.769 295.258 158.664 295.258 157.302C295.258 155.94 294.154 154.835 292.792 154.835C291.43 154.835 290.325 155.94 290.325 157.302C290.325 158.664 291.43 159.769 292.792 159.769Z" fill="currentColor"/>
<path d="M347.984 272.982C349.302 272.982 350.371 271.913 350.371 270.595C350.371 269.276 349.302 268.208 347.984 268.208C346.665 268.208 345.596 269.276 345.596 270.595C345.596 271.913 346.665 272.982 347.984 272.982Z" fill="currentColor"/>
<path d="M140.917 269.09C142.241 269.09 143.315 268.016 143.315 266.691C143.315 265.366 142.241 264.292 140.917 264.292C139.592 264.292 138.518 265.366 138.518 266.691C138.518 268.016 139.592 269.09 140.917 269.09Z" fill="currentColor"/>
<path d="M319.053 225.982C320.309 225.982 321.327 224.963 321.327 223.707C321.327 222.451 320.309 221.433 319.053 221.433C317.797 221.433 316.779 222.451 316.779 223.707C316.779 224.963 317.797 225.982 319.053 225.982Z" fill="currentColor"/>
<path d="M305.452 242.004C306.658 242.004 307.636 241.026 307.636 239.82C307.636 238.614 306.658 237.636 305.452 237.636C304.246 237.636 303.268 238.614 303.268 239.82C303.268 241.026 304.246 242.004 305.452 242.004Z" fill="currentColor"/>
<path d="M291.774 268.706C292.999 268.706 293.992 267.713 293.992 266.488C293.992 265.263 292.999 264.271 291.774 264.271C290.549 264.271 289.556 265.263 289.556 266.488C289.556 267.713 290.549 268.706 291.774 268.706Z" fill="currentColor"/>
<path d="M304.672 183.925C305.915 183.925 306.923 182.917 306.923 181.673C306.923 180.43 305.915 179.422 304.672 179.422C303.428 179.422 302.42 180.43 302.42 181.673C302.42 182.917 303.428 183.925 304.672 183.925Z" fill="currentColor"/>
<path d="M121.569 225.393C122.868 225.393 123.922 224.34 123.922 223.04C123.922 221.74 122.868 220.687 121.569 220.687C120.269 220.687 119.215 221.74 119.215 223.04C119.215 224.34 120.269 225.393 121.569 225.393Z" fill="currentColor"/>
<path d="M115.097 198.918C116.278 198.918 117.236 197.96 117.236 196.779C117.236 195.598 116.278 194.641 115.097 194.641C113.916 194.641 112.959 195.598 112.959 196.779C112.959 197.96 113.916 198.918 115.097 198.918Z" fill="currentColor"/>
<path d="M275.865 285.824C276.977 285.824 277.879 284.922 277.879 283.81C277.879 282.698 276.977 281.796 275.865 281.796C274.753 281.796 273.851 282.698 273.851 283.81C273.851 284.922 274.753 285.824 275.865 285.824Z" fill="currentColor"/>
<path d="M214.563 120.021C215.794 120.021 216.792 119.023 216.792 117.792C216.792 116.561 215.794 115.563 214.563 115.563C213.332 115.563 212.334 116.561 212.334 117.792C212.334 119.023 213.332 120.021 214.563 120.021Z" fill="currentColor"/>
<path d="M123.028 260.57C124.259 260.57 125.257 259.572 125.257 258.341C125.257 257.11 124.259 256.112 123.028 256.112C121.797 256.112 120.799 257.11 120.799 258.341C120.799 259.572 121.797 260.57 123.028 260.57Z" fill="currentColor"/>
<path d="M122.044 212.11C123.263 212.11 124.251 211.122 124.251 209.904C124.251 208.685 123.263 207.697 122.044 207.697C120.826 207.697 119.838 208.685 119.838 209.904C119.838 211.122 120.826 212.11 122.044 212.11Z" fill="currentColor"/>
<path d="M185.643 125.656C186.792 125.656 187.725 124.724 187.725 123.574C187.725 122.424 186.792 121.492 185.643 121.492C184.493 121.492 183.561 122.424 183.561 123.574C183.561 124.724 184.493 125.656 185.643 125.656Z" fill="currentColor"/>
<path d="M141.053 157.302C142.321 157.302 143.35 156.274 143.35 155.005C143.35 153.737 142.321 152.708 141.053 152.708C139.784 152.708 138.756 153.737 138.756 155.005C138.756 156.274 139.784 157.302 141.053 157.302Z" fill="currentColor"/>
<path d="M201.392 70.8592C202.492 70.8592 203.384 69.9676 203.384 68.8678C203.384 67.768 202.492 66.8765 201.392 66.8765C200.293 66.8765 199.401 67.768 199.401 68.8678C199.401 69.9676 200.293 70.8592 201.392 70.8592Z" fill="currentColor"/>
<path d="M125.971 241.72C127.121 241.72 128.053 240.788 128.053 239.638C128.053 238.488 127.121 237.556 125.971 237.556C124.821 237.556 123.889 238.488 123.889 239.638C123.889 240.788 124.821 241.72 125.971 241.72Z" fill="currentColor"/>
<path d="M305.487 253.917C306.63 253.917 307.557 252.99 307.557 251.847C307.557 250.703 306.63 249.776 305.487 249.776C304.343 249.776 303.416 250.703 303.416 251.847C303.416 252.99 304.343 253.917 305.487 253.917Z" fill="currentColor"/>
<path d="M310.296 212.109C311.439 212.109 312.366 211.182 312.366 210.039C312.366 208.895 311.439 207.968 310.296 207.968C309.152 207.968 308.225 208.895 308.225 210.039C308.225 211.182 309.152 212.109 310.296 212.109Z" fill="currentColor"/>
<path d="M275.978 141.439C277.041 141.439 277.902 140.578 277.902 139.516C277.902 138.453 277.041 137.592 275.978 137.592C274.916 137.592 274.055 138.453 274.055 139.516C274.055 140.578 274.916 141.439 275.978 141.439Z" fill="currentColor"/>
<path d="M241.344 122.091C242.438 122.091 243.324 121.205 243.324 120.111C243.324 119.018 242.438 118.131 241.344 118.131C240.251 118.131 239.364 119.018 239.364 120.111C239.364 121.205 240.251 122.091 241.344 122.091Z" fill="currentColor"/>
<path d="M269.077 128.801C270.214 128.801 271.136 127.879 271.136 126.742C271.136 125.605 270.214 124.683 269.077 124.683C267.94 124.683 267.018 125.605 267.018 126.742C267.018 127.879 267.94 128.801 269.077 128.801Z" fill="currentColor"/>
<path d="M254.401 297.954C255.439 297.954 256.28 297.113 256.28 296.076C256.28 295.039 255.439 294.198 254.401 294.198C253.364 294.198 252.523 295.039 252.523 296.076C252.523 297.113 253.364 297.954 254.401 297.954Z" fill="currentColor"/>
<path d="M158.387 286.967C159.443 286.967 160.299 286.111 160.299 285.055C160.299 283.999 159.443 283.143 158.387 283.143C157.331 283.143 156.475 283.999 156.475 285.055C156.475 286.111 157.331 286.967 158.387 286.967Z" fill="currentColor"/>
<path d="M237.419 100.3C238.375 100.3 239.15 99.5251 239.15 98.569C239.15 97.6129 238.375 96.8379 237.419 96.8379C236.463 96.8379 235.688 97.6129 235.688 98.569C235.688 99.5251 236.463 100.3 237.419 100.3Z" fill="currentColor"/>
<path d="M253.327 126.323C254.327 126.323 255.137 125.512 255.137 124.512C255.137 123.513 254.327 122.702 253.327 122.702C252.327 122.702 251.517 123.513 251.517 124.512C251.517 125.512 252.327 126.323 253.327 126.323Z" fill="currentColor"/>
<path d="M191.131 284.67C192.118 284.67 192.919 283.87 192.919 282.882C192.919 281.895 192.118 281.095 191.131 281.095C190.144 281.095 189.343 281.895 189.343 282.882C189.343 283.87 190.144 284.67 191.131 284.67Z" fill="currentColor"/>
<path d="M214.314 305.365C215.307 305.365 216.113 304.559 216.113 303.566C216.113 302.572 215.307 301.767 214.314 301.767C213.32 301.767 212.515 302.572 212.515 303.566C212.515 304.559 213.32 305.365 214.314 305.365Z" fill="currentColor"/>
<path d="M185.676 301.472C186.689 301.472 187.509 300.651 187.509 299.639C187.509 298.627 186.689 297.806 185.676 297.806C184.664 297.806 183.844 298.627 183.844 299.639C183.844 300.651 184.664 301.472 185.676 301.472Z" fill="currentColor"/>
<path d="M155.309 167.791C156.265 167.791 157.04 167.016 157.04 166.06C157.04 165.104 156.265 164.329 155.309 164.329C154.352 164.329 153.577 165.104 153.577 166.06C153.577 167.016 154.352 167.791 155.309 167.791Z" fill="currentColor"/>
<path d="M155.365 257.074C156.34 257.074 157.13 256.283 157.13 255.309C157.13 254.334 156.34 253.543 155.365 253.543C154.391 253.543 153.6 254.334 153.6 255.309C153.6 256.283 154.391 257.074 155.365 257.074Z" fill="currentColor"/>
<path d="M140.735 211.679C141.579 211.679 142.263 210.996 142.263 210.152C142.263 209.308 141.579 208.625 140.735 208.625C139.892 208.625 139.208 209.308 139.208 210.152C139.208 210.996 139.892 211.679 140.735 211.679Z" fill="currentColor"/>
<path d="M144.334 235.373C145.202 235.373 145.906 234.669 145.906 233.8C145.906 232.932 145.202 232.228 144.334 232.228C143.465 232.228 142.761 232.932 142.761 233.8C142.761 234.669 143.465 235.373 144.334 235.373Z" fill="currentColor"/>
<path d="M245.915 142.152C246.715 142.152 247.364 141.503 247.364 140.704C247.364 139.904 246.715 139.255 245.915 139.255C245.115 139.255 244.467 139.904 244.467 140.704C244.467 141.503 245.115 142.152 245.915 142.152Z" fill="currentColor"/>
<path d="M330.627 273.333C332.696 273.333 334.372 271.656 334.372 269.588C334.372 267.52 332.696 265.843 330.627 265.843C328.559 265.843 326.882 267.52 326.882 269.588C326.882 271.656 328.559 273.333 330.627 273.333Z" fill="currentColor"/>
<path d="M284.295 317.063C286.364 317.063 288.041 315.387 288.041 313.318C288.041 311.25 286.364 309.573 284.295 309.573C282.227 309.573 280.55 311.25 280.55 313.318C280.55 315.387 282.227 317.063 284.295 317.063Z" fill="currentColor"/>
</g>
</g>
</svg>
